<?xml version="1.0" standalone="no"?>
<!DOCTYPE svg PUBLIC "-//W3C//DTD SVG 20010904//EN"
 "http://www.w3.org/TR/2001/REC-SVG-20010904/DTD/svg10.dtd">
<svg version="1.0" xmlns="http://www.w3.org/2000/svg"
 width="383.000000pt" height="384.000000pt" viewBox="0 0 383.000000 384.000000"
 preserveAspectRatio="xMidYMid meet">

<g transform="translate(0.000000,384.000000) scale(0.100000,-0.100000)"
fill="#000000" stroke="none">
<path d="M3097 3758 c-44 -222 -211 -386 -429 -420 l-78 -13 0 -96 0 -97 28
-6 c15 -2 48 -8 75 -11 26 -3 82 -24 125 -45 163 -82 269 -241 285 -425 l2
-30 99 0 100 0 13 75 c41 226 190 377 421 426 l82 17 0 98 0 97 -56 7 c-126
15 -228 69 -318 166 -68 73 -113 165 -128 263 l-13 76 -96 0 -96 0 -16 -82z"/>
<path d="M465 3350 l-470 -470 235 -235 235 -235 475 475 475 475 -230 230
c-126 126 -234 230 -240 230 -6 0 -222 -212 -480 -470z"/>
<path d="M1382 2997 l-192 -192 843 -843 842 -842 193 193 192 192 -843 843
-842 842 -193 -193z"/>
<path d="M822 2437 l-192 -192 843 -843 842 -842 195 195 195 195 -840 840
c-462 462 -842 840 -845 840 -3 0 -92 -87 -198 -193z"/>
<path d="M2945 870 c-241 -241 -437 -441 -435 -443 7 -7 379 -127 392 -127 16
0 606 589 614 612 5 18 -113 398 -125 398 -3 0 -204 -198 -446 -440z"/>
<path d="M3381 436 l-222 -222 223 -73 c123 -39 268 -87 323 -106 55 -18 103
-30 107 -27 6 6 -194 637 -205 648 -2 2 -103 -97 -226 -220z"/>
</g>
</svg>
