<?xml version="1.0" standalone="no"?>
<!DOCTYPE svg PUBLIC "-//W3C//DTD SVG 20010904//EN"
 "http://www.w3.org/TR/2001/REC-SVG-20010904/DTD/svg10.dtd">
<svg version="1.0" xmlns="http://www.w3.org/2000/svg"
 width="512.000000pt" height="512.000000pt" viewBox="0 0 512.000000 512.000000"
 preserveAspectRatio="xMidYMid meet">

<g transform="translate(0.000000,512.000000) scale(0.100000,-0.100000)"
fill="#000000" stroke="none">
<path d="M1056 4968 c-3 -18 -8 -63 -11 -99 -17 -198 -123 -428 -271 -588
-172 -186 -408 -304 -662 -333 l-112 -12 0 -147 0 -146 83 -6 c377 -29 707
-260 872 -610 49 -104 82 -219 90 -316 3 -36 8 -81 11 -99 l5 -33 147 3 147 3
7 95 c13 166 80 355 179 502 168 249 481 430 787 454 l82 7 0 147 0 147 -77 7
c-43 4 -107 13 -143 21 -452 96 -793 485 -828 945 l-7 85 -147 3 -147 3 -5
-33z"/>
<path d="M3540 4460 l0 -150 150 0 150 0 0 150 0 150 -150 0 -150 0 0 -150z"/>
<path d="M4057 4014 c-4 -4 -7 -28 -7 -54 0 -67 -34 -193 -75 -277 -76 -153
-211 -286 -365 -356 -82 -38 -187 -67 -241 -67 -82 0 -79 5 -79 -160 l0 -147
78 -6 c345 -24 655 -333 679 -680 l6 -78 151 3 151 3 6 72 c22 236 161 453
373 582 82 49 216 92 308 98 l78 6 0 148 0 148 -32 5 c-18 3 -56 8 -84 11 -65
7 -177 45 -252 85 -214 114 -369 348 -391 593 l-6 72 -146 3 c-80 1 -148 -1
-152 -4z"/>
<path d="M2410 2610 l0 -150 150 0 150 0 0 150 0 150 -150 0 -150 0 0 -150z"/>
<path d="M1921 1862 c-25 -184 -91 -314 -225 -447 -68 -68 -111 -101 -171
-132 -101 -52 -199 -82 -292 -90 l-73 -6 0 -147 0 -147 68 -7 c189 -19 358
-101 483 -232 129 -137 194 -279 214 -472 l7 -63 147 3 146 3 8 79 c34 349
311 630 667 678 l90 12 0 146 0 147 -67 6 c-257 24 -488 179 -607 407 -45 86
-75 187 -83 277 l-6 73 -147 0 -147 0 -12 -88z"/>
<path d="M430 1780 l0 -150 150 0 150 0 0 150 0 150 -150 0 -150 0 0 -150z"/>
<path d="M3450 1600 l0 -150 150 0 150 0 0 150 0 150 -150 0 -150 0 0 -150z"/>
<path d="M4230 830 l0 -150 150 0 150 0 0 150 0 150 -150 0 -150 0 0 -150z"/>
</g>
</svg>
