<?xml version="1.0" standalone="no"?>
<!DOCTYPE svg PUBLIC "-//W3C//DTD SVG 20010904//EN"
 "http://www.w3.org/TR/2001/REC-SVG-20010904/DTD/svg10.dtd">
<svg version="1.0" xmlns="http://www.w3.org/2000/svg"
 width="300.000000pt" height="181.000000pt" viewBox="0 0 300.000000 181.000000"
 preserveAspectRatio="xMidYMid meet">

<g transform="translate(0.000000,181.000000) scale(0.100000,-0.100000)"
fill="#000000" stroke="none">
<path d="M1325 1793 c-81 -10 -237 -48 -328 -79 -287 -101 -571 -299 -791
-554 -109 -126 -196 -239 -196 -254 0 -18 113 -165 214 -279 268 -300 622
-514 986 -593 68 -15 127 -19 295 -19 192 0 220 3 320 27 330 78 607 239 876
507 104 104 299 337 299 356 0 20 -232 295 -322 381 -275 266 -599 438 -926
495 -106 18 -331 24 -427 12z m320 -308 c198 -52 366 -213 427 -410 31 -97 31
-243 1 -340 -78 -250 -312 -424 -570 -425 -100 0 -164 15 -263 62 -68 32 -100
56 -160 117 -119 120 -173 250 -173 416 0 44 6 105 13 135 47 208 226 388 440
444 73 19 212 20 285 1z"/>
<path d="M1416 1283 c-10 -76 -56 -162 -115 -215 -56 -50 -140 -88 -196 -88
l-35 0 0 -70 c0 -68 1 -70 28 -76 114 -25 185 -61 235 -118 31 -36 67 -114 81
-174 l13 -57 65 -3 66 -3 7 50 c10 77 55 160 114 213 56 50 140 88 196 88 l35
0 0 75 0 75 -35 0 c-53 0 -138 36 -189 81 -58 52 -96 116 -117 199 l-17 65
-64 3 -65 3 -7 -48z"/>
</g>
</svg>
